<?xml version="1.0" standalone="no"?>
<!DOCTYPE svg PUBLIC "-//W3C//DTD SVG 20010904//EN"
 "http://www.w3.org/TR/2001/REC-SVG-20010904/DTD/svg10.dtd">
<svg version="1.0" xmlns="http://www.w3.org/2000/svg"
 width="512.000000pt" height="512.000000pt" viewBox="0 0 512.000000 512.000000"
 preserveAspectRatio="xMidYMid meet">
<metadata>
Created by potrace 1.11, written by Peter Selinger 2001-2013
</metadata>
<g transform="translate(0.000000,512.000000) scale(0.100000,-0.100000)"
fill="#000000" stroke="none">
<path d="M2785 4703 c-364 -278 -1842 -1443 -1872 -1474 -34 -38 -37 -70 -10
-109 12 -19 288 -367 611 -773 355 -446 600 -743 617 -752 18 -10 39 -13 55
-9 34 9 203 149 213 177 11 29 -3 84 -30 121 -13 17 -250 316 -527 665 l-503
635 179 180 c98 100 403 411 677 691 274 281 546 558 604 618 58 59 101 107
96 107 -6 -1 -55 -35 -110 -77z"/>
<path d="M2888 3520 c-25 -17 -75 -58 -112 -93 -75 -71 -82 -96 -43 -158 12
-20 252 -325 532 -678 281 -354 510 -646 510 -651 0 -5 -333 -348 -740 -761
-682 -693 -845 -862 -805 -833 196 141 1919 1490 1967 1540 38 39 44 84 16
124 -73 104 -1191 1500 -1216 1518 -41 29 -55 28 -109 -8z"/>
</g>
</svg>
