<?xml version="1.0" standalone="no"?>
<!DOCTYPE svg PUBLIC "-//W3C//DTD SVG 20010904//EN"
 "http://www.w3.org/TR/2001/REC-SVG-20010904/DTD/svg10.dtd">
<svg version="1.0" xmlns="http://www.w3.org/2000/svg"
 width="700.000000pt" height="700.000000pt" viewBox="0 0 700.000000 700.000000"
 preserveAspectRatio="xMidYMid meet">
<metadata>
Created by potrace 1.11, written by Peter Selinger 2001-2013
</metadata>
<g transform="translate(0.000000,700.000000) scale(0.100000,-0.100000)"
fill="#000000" stroke="none">
<path d="M3935 6585 c-16 -14 -86 -68 -155 -120 -69 -53 -138 -106 -155 -119
-16 -13 -64 -50 -106 -82 -147 -113 -666 -518 -824 -643 -39 -31 -86 -68 -105
-83 -19 -15 -105 -82 -191 -150 -179 -142 -209 -165 -293 -231 -33 -26 -68
-53 -76 -60 -8 -7 -46 -36 -84 -65 -37 -30 -75 -60 -85 -67 -9 -8 -119 -95
-246 -195 -452 -356 -463 -366 -452 -436 5 -27 47 -95 77 -124 3 -3 39 -48 80
-100 41 -52 80 -102 87 -110 7 -8 61 -76 120 -150 258 -323 699 -877 713 -894
8 -10 26 -33 40 -50 15 -17 113 -141 220 -276 107 -135 200 -252 207 -260 7
-8 35 -44 64 -80 106 -135 141 -162 193 -150 44 10 48 12 173 115 130 106 148
130 139 187 -9 56 -29 90 -107 188 -38 47 -144 180 -235 295 -92 116 -179 226
-194 245 -16 19 -121 152 -234 295 -114 143 -212 267 -219 275 -12 15 -124
155 -139 175 -4 6 -23 28 -40 51 -18 22 -45 56 -60 75 -15 19 -80 101 -145
182 l-118 149 160 163 c88 90 320 327 515 526 195 199 406 414 469 478 390
398 840 857 921 940 124 125 153 162 85 106z"/>
<path d="M3987 4862 c-68 -43 -237 -190 -256 -223 -25 -44 -26 -83 -3 -126 9
-17 101 -136 203 -265 102 -128 257 -323 344 -433 88 -110 163 -204 167 -210
11 -13 85 -106 417 -525 154 -195 291 -366 302 -380 30 -34 52 -70 48 -75 -2
-2 -170 -173 -374 -381 -203 -207 -439 -447 -523 -533 -85 -86 -353 -358 -597
-606 -665 -676 -696 -707 -681 -702 20 8 595 452 1271 982 105 82 226 177 270
211 107 84 953 749 985 775 14 11 75 59 137 107 161 126 175 166 96 273 -26
35 -92 121 -147 190 -56 69 -114 143 -131 164 -16 22 -43 56 -60 76 -73 91
-141 176 -405 509 -154 195 -295 373 -313 394 -17 22 -54 69 -82 105 -27 36
-55 71 -61 76 -6 6 -113 139 -238 298 -130 164 -240 294 -256 302 -38 20 -79
19 -113 -3z"/>
</g>
</svg>
